<svg id="visual" viewBox="0 0 960 100" width="960" height="100" xmlns="http://www.w3.org/2000/svg" xmlns:xlink="http://www.w3.org/1999/xlink" version="1.1"><rect x="0" y="0" width="960" height="100" fill="#fff"></rect><path d="M0 68L11.5 65.5C23 63 46 58 68.8 53.7C91.7 49.3 114.3 45.7 137.2 52.3C160 59 183 76 205.8 76C228.7 76 251.3 59 274.2 52.7C297 46.3 320 50.7 342.8 50.7C365.7 50.7 388.3 46.3 411.2 43.5C434 40.7 457 39.3 480 41.8C503 44.3 526 50.7 548.8 58C571.7 65.3 594.3 73.7 617.2 69.8C640 66 663 50 685.8 52.5C708.7 55 731.3 76 754.2 71.8C777 67.7 800 38.3 822.8 37.2C845.7 36 868.3 63 891.2 68C914 73 937 56 948.5 47.5L960 39L960 0L948.5 0C937 0 914 0 891.2 0C868.3 0 845.7 0 822.8 0C800 0 777 0 754.2 0C731.3 0 708.7 0 685.8 0C663 0 640 0 617.2 0C594.3 0 571.7 0 548.8 0C526 0 503 0 480 0C457 0 434 0 411.2 0C388.3 0 365.7 0 342.8 0C320 0 297 0 274.2 0C251.3 0 228.7 0 205.8 0C183 0 160 0 137.2 0C114.3 0 91.7 0 68.8 0C46 0 23 0 11.5 0L0 0Z" fill="#39b54a" stroke-linecap="round" stroke-linejoin="miter"></path></svg>