<svg id="visual" viewBox="0 0 900 200" width="900" height="200" xmlns="http://www.w3.org/2000/svg" xmlns:xlink="http://www.w3.org/1999/xlink" version="1.1"><rect x="0" y="0" width="900" height="200" fill="#fff"></rect><path d="M0 166L18.8 167.7C37.7 169.3 75.3 172.7 112.8 168.5C150.3 164.3 187.7 152.7 225.2 129.8C262.7 107 300.3 73 337.8 79.2C375.3 85.3 412.7 131.7 450.2 150C487.7 168.3 525.3 158.7 562.8 134.5C600.3 110.3 637.7 71.7 675.2 67.5C712.7 63.3 750.3 93.7 787.8 96.7C825.3 99.7 862.7 75.3 881.3 63.2L900 51L900 0L881.3 0C862.7 0 825.3 0 787.8 0C750.3 0 712.7 0 675.2 0C637.7 0 600.3 0 562.8 0C525.3 0 487.7 0 450.2 0C412.7 0 375.3 0 337.8 0C300.3 0 262.7 0 225.2 0C187.7 0 150.3 0 112.8 0C75.3 0 37.7 0 18.8 0L0 0Z" fill="#ef233c" stroke-linecap="round" stroke-linejoin="miter"></path></svg>