<svg id="visual" viewBox="0 0 900 100" width="900" height="100" xmlns="http://www.w3.org/2000/svg" xmlns:xlink="http://www.w3.org/1999/xlink" version="1.1"><rect x="0" y="0" width="900" height="100" fill="#fff"></rect><path d="M0 94L21.5 94.2C43 94.3 86 94.7 128.8 92.8C171.7 91 214.3 87 257.2 84.8C300 82.7 343 82.3 385.8 80.7C428.7 79 471.3 76 514.2 76.3C557 76.7 600 80.3 642.8 81C685.7 81.7 728.3 79.3 771.2 73.5C814 67.7 857 58.3 878.5 53.7L900 49L900 101L878.5 101C857 101 814 101 771.2 101C728.3 101 685.7 101 642.8 101C600 101 557 101 514.2 101C471.3 101 428.7 101 385.8 101C343 101 300 101 257.2 101C214.3 101 171.7 101 128.8 101C86 101 43 101 21.5 101L0 101Z" fill="#0066FF" stroke-linecap="round" stroke-linejoin="miter"></path></svg>