<svg id="visual" viewBox="0 0 600 200" width="600" height="200" xmlns="http://www.w3.org/2000/svg" xmlns:xlink="http://www.w3.org/1999/xlink" version="1.1"><rect x="0" y="0" width="600" height="200" fill="#fff"></rect><path d="M0 136L7.2 131.2C14.3 126.3 28.7 116.7 43 108C57.3 99.3 71.7 91.7 86 104.8C100.3 118 114.7 152 128.8 152C143 152 157 118 171.2 105.7C185.3 93.3 199.7 102.7 214 103C228.3 103.3 242.7 94.7 257 89C271.3 83.3 285.7 80.7 300 85.5C314.3 90.3 328.7 102.7 343 117C357.3 131.3 371.7 147.7 386 139.8C400.3 132 414.7 100 428.8 105.2C443 110.3 457 152.7 471.2 144.5C485.3 136.3 499.7 77.7 514 75.5C528.3 73.3 542.7 127.7 557 137.7C571.3 147.7 585.7 113.3 592.8 96.2L600 79L600 0L592.8 0C585.7 0 571.3 0 557 0C542.7 0 528.3 0 514 0C499.7 0 485.3 0 471.2 0C457 0 443 0 428.8 0C414.7 0 400.3 0 386 0C371.7 0 357.3 0 343 0C328.7 0 314.3 0 300 0C285.7 0 271.3 0 257 0C242.7 0 228.3 0 214 0C199.7 0 185.3 0 171.2 0C157 0 143 0 128.8 0C114.7 0 100.3 0 86 0C71.7 0 57.3 0 43 0C28.7 0 14.3 0 7.2 0L0 0Z" fill="#39b54a" stroke-linecap="round" stroke-linejoin="miter"></path></svg>