<svg id="visual" viewBox="0 0 600 200" width="600" height="200" xmlns="http://www.w3.org/2000/svg" xmlns:xlink="http://www.w3.org/1999/xlink" version="1.1"><rect x="0" y="0" width="600" height="200" fill="#39b54a"></rect><path d="M0 188L7.7 187.2C15.3 186.3 30.7 184.7 46 173.3C61.3 162 76.7 141 92 132.7C107.3 124.3 122.7 128.7 138.2 128.8C153.7 129 169.3 125 184.8 127.2C200.3 129.3 215.7 137.7 231 150.2C246.3 162.7 261.7 179.3 277 175.2C292.3 171 307.7 146 323 144.7C338.3 143.3 353.7 165.7 369 171.3C384.3 177 399.7 166 415.2 164.7C430.7 163.3 446.3 171.7 461.8 177.7C477.3 183.7 492.7 187.3 508 182.2C523.3 177 538.7 163 554 163.5C569.3 164 584.7 179 592.3 186.5L600 194L600 201L592.3 201C584.7 201 569.3 201 554 201C538.7 201 523.3 201 508 201C492.7 201 477.3 201 461.8 201C446.3 201 430.7 201 415.2 201C399.7 201 384.3 201 369 201C353.7 201 338.3 201 323 201C307.7 201 292.3 201 277 201C261.7 201 246.3 201 231 201C215.7 201 200.3 201 184.8 201C169.3 201 153.7 201 138.2 201C122.7 201 107.3 201 92 201C76.7 201 61.3 201 46 201C30.7 201 15.3 201 7.7 201L0 201Z" fill="#fff" stroke-linecap="round" stroke-linejoin="miter"></path></svg>