<?xml version="1.0" standalone="no"?>
<!DOCTYPE svg PUBLIC "-//W3C//DTD SVG 20010904//EN"
 "http://www.w3.org/TR/2001/REC-SVG-20010904/DTD/svg10.dtd">
<svg version="1.0" xmlns="http://www.w3.org/2000/svg"
 width="238.000000pt" height="238.000000pt" viewBox="0 0 238.000000 238.000000"
 preserveAspectRatio="xMidYMid meet">
<metadata>
Created by potrace 1.14, written by Peter Selinger 2001-2017
</metadata>
<g transform="translate(0.000000,238.000000) scale(0.100000,-0.100000)"
fill="#000000" stroke="none">
<path d="M0 1190 l0 -1190 1190 0 1190 0 0 1190 0 1190 -1190 0 -1190 0 0
-1190z m1170 564 l0 -417 -34 6 c-59 9 -95 -33 -129 -153 -9 -30 -39 -100 -67
-154 -33 -64 -53 -116 -56 -145 -2 -25 -10 -71 -17 -101 l-12 -55 -121 -3
-121 -3 9 67 c5 36 8 76 6 88 -5 33 -36 -79 -43 -157 -4 -38 -9 -66 -12 -63
-5 5 9 262 27 496 6 69 17 240 25 380 8 140 18 306 21 368 4 61 10 112 14 112
12 0 30 -142 31 -248 l2 -97 7 105 c5 58 11 169 15 248 l7 142 224 0 224 0 0
-416z m614 396 c9 -10 10 -162 3 -350 -15 -372 -30 -828 -32 -950 -1 -96 -16
-543 -19 -582 -1 -3 -5 -10 -10 -15 -5 -4 -7 1 -4 14 8 30 -6 33 -130 32 -69
-1 -98 -4 -82 -9 17 -5 -1 -8 -57 -9 l-83 -1 0 46 c0 25 -7 73 -16 106 -17 67
-12 110 18 148 15 18 18 33 13 59 -4 23 -2 37 7 42 7 5 86 9 176 9 145 0 162
-2 162 -17 0 -9 2 -14 5 -11 3 3 3 24 -1 48 l-7 42 -172 -7 -172 -7 -12 117
c-6 65 -14 122 -18 127 -3 6 -26 23 -52 39 l-46 30 -12 102 c-7 63 -12 275
-12 555 l-1 453 274 -3 c151 -2 277 -5 280 -8z m-956 -1506 c-10 -22 -9 -27 5
-35 9 -6 17 -17 17 -26 0 -13 -15 -14 -119 -8 -78 5 -121 3 -125 -3 -10 -17 3
-20 138 -32 118 -11 131 -14 152 -37 16 -18 24 -38 24 -63 0 -34 -3 -38 -31
-44 -49 -10 -166 -7 -236 5 -71 12 -84 8 -60 -19 21 -23 22 -42 2 -42 -9 0
-15 9 -15 24 0 14 -4 27 -8 30 -5 3 -5 27 -1 53 5 26 13 82 19 123 6 41 13 81
15 88 3 9 36 12 119 12 l116 0 -12 -26z m-261 -36 c-3 -8 -6 -5 -6 6 -1 11 2
17 5 13 3 -3 4 -12 1 -19z m-24 -223 c-3 -9 -8 -14 -10 -11 -3 3 -2 9 2 15 9
16 15 13 8 -4z m602 -93 c-36 -5 -45 6 -20 24 18 13 21 13 33 -3 12 -16 10
-18 -13 -21z m-472 -9 c-18 -2 -48 -2 -65 0 -18 2 -4 4 32 4 36 0 50 -2 33 -4z
m174 0 c-20 -2 -52 -2 -70 0 -17 2 0 4 38 4 39 0 53 -2 32 -4z m172 -9 c2 -2
-17 -4 -42 -4 -26 0 -47 4 -47 9 0 8 79 3 89 -5z m-351 -11 c-16 -2 -40 -2
-55 0 -16 2 -3 4 27 4 30 0 43 -2 28 -4z m51 -112 c6 -39 11 -86 11 -106 l0
-36 -37 7 c-95 18 -99 23 -102 124 -1 65 11 78 80 79 l36 1 12 -69z m327 8
c-3 -34 -6 -73 -6 -86 0 -26 -23 -38 -91 -49 l-39 -7 0 70 c0 39 3 85 6 102 6
31 7 31 72 31 l65 0 -7 -61z m-192 9 c28 -45 -52 -75 -81 -32 -12 19 -12 24 3
38 20 21 63 17 78 -6z m-21 -155 c-7 -2 -19 -2 -25 0 -7 3 -2 5 12 5 14 0 19
-2 13 -5z"/>
<path d="M639 1407 c-9 -20 -21 -203 -13 -195 4 5 13 3 21 -4 7 -6 16 -8 20
-5 3 4 8 51 11 105 4 94 4 98 -17 99 -11 1 -21 1 -22 0z"/>
<path d="M658 1045 c3 -82 6 -152 8 -154 7 -8 2 204 -5 254 -5 29 -6 -13 -3
-100z"/>
<path d="M635 1018 c-4 -42 -5 -82 -2 -90 2 -7 8 22 12 64 4 42 5 82 2 90 -2
7 -8 -22 -12 -64z"/>
<path d="M1682 360 c0 -14 2 -19 5 -12 2 6 2 18 0 25 -3 6 -5 1 -5 -13z"/>
</g>
</svg>
